<svg width="21" height="21" viewBox="0 0 21 21" fill="none" xmlns="http://www.w3.org/2000/svg">
<path d="M8.74958 10.9639C8.74297 9.77348 9.71327 8.81569 10.9328 8.80892C12.1523 8.80215 13.1331 9.74909 13.1398 10.9396C13.1464 12.13 12.1761 13.0878 10.9566 13.0946C9.73708 13.1013 8.75619 12.1544 8.74958 10.9639ZM3.15181 13.1379C4.37131 13.1311 5.34161 12.1734 5.335 10.9829C5.32839 9.79245 4.3475 8.8455 3.12801 8.85227C1.90851 8.85905 0.93821 9.81683 0.944823 11.0073C0.951436 12.1977 1.93232 13.1447 3.15181 13.1379ZM18.7613 13.0512C19.9808 13.0444 20.9511 12.0867 20.9445 10.8962C20.9379 9.70574 19.957 8.75879 18.7375 8.76557C17.518 8.77234 16.5477 9.73013 16.5543 10.9206C16.561 12.111 17.5418 13.058 18.7613 13.0512Z" fill="#667085"/>
</svg>
